<svg width="240" height="53" viewBox="0 0 240 53" fill="none" xmlns="http://www.w3.org/2000/svg">
<path d="M37.0075 38.8658H24.6748L30.8427 28.2683L37.0075 38.8658Z" fill="white"/>
<path d="M61.6826 53H16.4472L20.5612 45.933H57.5717L61.6826 53Z" fill="white"/>
<path d="M26.7285 21.2008L8.22489 52.9995H0L22.6145 14.1338L26.7285 21.2008Z" fill="white"/>
<path d="M53.4578 38.8657H45.2329L26.7292 7.06705L30.8401 0L53.4578 38.8657Z" fill="white"/>
<path d="M82.3318 28.5702V23.7717H104.386V28.5702H82.3318ZM75.1092 31.6732L88.9417 11.1996H97.9053L111.867 31.6732H103L91.0375 13.343H95.8417L83.9762 31.6732H75.1092Z" fill="white"/>
<path d="M122.512 11.1996V25.5951H141.31V31.6732H114.451V11.1996H122.512Z" fill="white"/>
<path d="M145.352 11.1996H153.413V31.6732H145.352V11.1996Z" fill="white"/>
<path d="M177.206 32.313C174.411 32.313 171.843 32.1424 169.5 31.8012C167.178 31.4813 165.158 30.9268 163.438 30.1377C161.74 29.3273 160.418 28.229 159.472 26.8427C158.548 25.4565 158.086 23.7077 158.086 21.5964C158.086 19.485 158.558 17.7256 159.504 16.318C160.45 14.8892 161.804 13.7588 163.567 12.9271C165.351 12.074 167.468 11.4662 169.919 11.1037C172.391 10.7411 175.142 10.5598 178.173 10.5598C182.15 10.5598 185.482 10.9224 188.169 11.6475C190.877 12.3726 192.941 13.407 194.359 14.7505C195.778 16.0728 196.541 17.651 196.649 19.485H188.265C188.007 19.0159 187.535 18.568 186.847 18.1415C186.159 17.6936 185.127 17.3311 183.751 17.0538C182.376 16.7766 180.516 16.6379 178.173 16.6379C175.422 16.6379 173.186 16.8086 171.467 17.1498C169.747 17.4697 168.489 17.9922 167.694 18.7173C166.899 19.4424 166.501 20.4021 166.501 21.5964C166.501 22.6414 166.909 23.5051 167.726 24.1876C168.543 24.87 169.854 25.3819 171.66 25.7231C173.466 26.0643 175.852 26.2349 178.818 26.2349C180.903 26.2349 182.709 26.1496 184.235 25.979C185.783 25.7871 187.18 25.4992 188.427 25.1153C189.695 24.7314 190.952 24.2515 192.199 23.6757L192.973 24.6034C191.64 27.0987 189.663 29.0074 187.04 30.3296C184.418 31.6519 181.14 32.313 177.206 32.313ZM190.78 31.6732C190.78 31.0334 190.866 30.3083 191.038 29.4979C191.21 28.6875 191.425 27.8451 191.683 26.9707C191.963 26.075 192.231 25.2326 192.489 24.4435H179.914V21.0845H197.1V31.6732H190.78Z" fill="white"/>
<path d="M233.949 25.4032L230.951 27.0987V11.1996H239.011V31.6732H230.951L206.671 17.7256L209.67 15.9981V31.6732H201.609V11.1996H209.67L233.949 25.4032Z" fill="white"/>
<path d="M75.6023 45.8206V39.1742H78.6473C79.4112 39.1742 79.9995 39.3278 80.4124 39.635C80.8253 39.9422 81.0317 40.3826 81.0317 40.9561C81.0317 41.3111 80.9526 41.5979 80.7943 41.8164C80.6429 42.0348 80.4227 42.1987 80.1337 42.3079C79.8516 42.4103 79.5213 42.4786 79.1428 42.5127L79.1634 42.4411C79.4456 42.4547 79.7105 42.4854 79.9582 42.5332C80.2128 42.581 80.4365 42.6595 80.6292 42.7688C80.8219 42.878 80.9732 43.0282 81.0833 43.2194C81.2003 43.4105 81.2588 43.6597 81.2588 43.967C81.2588 44.3698 81.1625 44.7077 80.9698 44.9808C80.7771 45.2471 80.5088 45.4485 80.1647 45.585C79.8206 45.7216 79.4249 45.8001 78.9776 45.8206H75.6023ZM76.6139 44.9296H78.7918C79.246 44.9296 79.6004 44.8511 79.855 44.6941C80.1096 44.5302 80.2369 44.2708 80.2369 43.9158C80.2369 43.6427 80.1578 43.4378 79.9995 43.3013C79.8412 43.1648 79.6383 43.076 79.3905 43.035C79.1428 42.9941 78.8813 42.9736 78.606 42.9736H76.6139V44.9296ZM76.6139 42.0929H78.5648C79.0189 42.0929 79.3733 42.0075 79.6279 41.8368C79.8825 41.6593 80.0098 41.3931 80.0098 41.038C80.0098 40.6898 79.8825 40.4406 79.6279 40.2904C79.3733 40.1402 79.0499 40.0651 78.6576 40.0651H76.6139V42.0929Z" fill="white"/>
<path d="M95.1248 39.1742L92.5649 43.5983V45.8206H91.5533V43.5983L88.9934 39.1742H90.1392L92.3275 43.0555H91.832L93.979 39.1742H95.1248Z" fill="white"/>
<path d="M113.719 43.5368V42.6561H116.134C116.533 42.6561 116.853 42.5401 117.094 42.3079C117.342 42.069 117.466 41.7549 117.466 41.3657C117.466 40.9629 117.342 40.6489 117.094 40.4236C116.853 40.1914 116.533 40.0754 116.134 40.0754H113.884V45.8206H112.872V39.1742H116.093C116.423 39.1742 116.733 39.222 117.022 39.3176C117.311 39.4063 117.562 39.5429 117.775 39.7272C117.996 39.9115 118.164 40.1402 118.281 40.4133C118.405 40.6864 118.467 41.0039 118.467 41.3657C118.467 41.7276 118.405 42.0451 118.281 42.3182C118.164 42.5844 117.996 42.8097 117.775 42.9941C117.562 43.1716 117.311 43.3081 117.022 43.4037C116.733 43.4925 116.423 43.5368 116.093 43.5368H113.719Z" fill="white"/>
<path d="M127.891 42.0519H132.485V42.9429H127.891V42.0519ZM132.382 39.1742H133.383V45.8206H132.382V39.1742ZM126.983 39.1742H127.995V45.8206H126.983V39.1742Z" fill="white"/>
<path d="M143.089 44.182V43.2911H146.702V44.182H143.089ZM141.623 45.8206L144.369 39.1742H145.442L148.209 45.8206H147.125L144.71 39.8194H145.102L142.697 45.8206H141.623Z" fill="white"/>
<path d="M155.959 43.6393H156.919C156.947 43.9055 157.04 44.1445 157.198 44.3561C157.363 44.5678 157.587 44.735 157.869 44.8579C158.151 44.9808 158.474 45.0423 158.839 45.0423C159.162 45.0423 159.431 45.0013 159.644 44.9194C159.864 44.8306 160.026 44.7077 160.129 44.5507C160.239 44.3937 160.294 44.2127 160.294 44.0079C160.294 43.7963 160.233 43.629 160.109 43.5061C159.992 43.3764 159.816 43.2706 159.582 43.1887C159.348 43.0999 159.056 43.0146 158.705 42.9326C158.402 42.8643 158.103 42.779 157.807 42.6766C157.511 42.5674 157.239 42.4342 156.991 42.2772C156.751 42.1202 156.554 41.929 156.403 41.7037C156.259 41.4784 156.186 41.2087 156.186 40.8947C156.186 40.5601 156.279 40.2563 156.465 39.9832C156.658 39.7033 156.936 39.4814 157.301 39.3176C157.666 39.1469 158.106 39.0615 158.622 39.0615C159.427 39.0615 160.036 39.2595 160.449 39.6555C160.862 40.0515 161.062 40.5806 161.048 41.2429H160.098C160.085 40.7854 159.937 40.4577 159.654 40.2597C159.379 40.0549 159.021 39.9525 158.581 39.9525C158.202 39.9525 157.876 40.0276 157.6 40.1778C157.332 40.328 157.198 40.5704 157.198 40.9049C157.198 41.0483 157.229 41.1746 157.291 41.2838C157.353 41.3862 157.456 41.4818 157.6 41.5706C157.745 41.6525 157.941 41.7344 158.189 41.8164C158.436 41.8983 158.743 41.987 159.107 42.0826C159.39 42.1441 159.658 42.2226 159.913 42.3182C160.174 42.4137 160.408 42.5332 160.614 42.6766C160.828 42.82 160.993 43.0043 161.11 43.2296C161.234 43.4481 161.296 43.7246 161.296 44.0591C161.296 44.4073 161.21 44.7248 161.038 45.0116C160.866 45.2915 160.597 45.5168 160.233 45.6875C159.868 45.8513 159.396 45.9332 158.818 45.9332C158.364 45.9332 157.969 45.8786 157.631 45.7694C157.294 45.6533 157.012 45.5031 156.785 45.3188C156.565 45.1276 156.389 44.9296 156.258 44.7248C156.135 44.5132 156.049 44.3117 156 44.1206C155.952 43.9226 155.939 43.7621 155.959 43.6393Z" fill="white"/>
<path d="M170.759 42.9429V44.9296H175.094V45.8206H169.747V39.1742H175.084V40.0651H170.759V42.0724H174.299V42.9429H170.759Z" fill="white"/>
<path d="M194.262 39.1742V44.9296H198.215V45.8206H193.25V39.1742H194.262Z" fill="white"/>
<path d="M207.612 44.182V43.2911H211.225V44.182H207.612ZM206.147 45.8206L208.892 39.1742H209.966L212.732 45.8206H211.648L209.233 39.8194H209.625L207.22 45.8206H206.147Z" fill="white"/>
<path d="M220.967 45.8206V39.1742H224.012C224.776 39.1742 225.364 39.3278 225.777 39.635C226.19 39.9422 226.396 40.3826 226.396 40.9561C226.396 41.3111 226.317 41.5979 226.159 41.8164C226.008 42.0348 225.787 42.1987 225.498 42.3079C225.216 42.4103 224.886 42.4786 224.508 42.5127L224.528 42.4411C224.81 42.4547 225.075 42.4854 225.323 42.5332C225.578 42.581 225.801 42.6595 225.994 42.7688C226.187 42.878 226.338 43.0282 226.448 43.2194C226.565 43.4105 226.624 43.6597 226.624 43.967C226.624 44.3698 226.527 44.7077 226.335 44.9808C226.142 45.2471 225.873 45.4485 225.529 45.585C225.185 45.7216 224.79 45.8001 224.342 45.8206H220.967ZM221.979 44.9296H224.157C224.611 44.9296 224.965 44.8511 225.22 44.6941C225.474 44.5302 225.602 44.2708 225.602 43.9158C225.602 43.6427 225.523 43.4378 225.364 43.3013C225.206 43.1648 225.003 43.076 224.755 43.035C224.508 42.9941 224.246 42.9736 223.971 42.9736H221.979V44.9296ZM221.979 42.0929H223.929C224.384 42.0929 224.738 42.0075 224.993 41.8368C225.247 41.6593 225.375 41.3931 225.375 41.038C225.375 40.6898 225.247 40.4406 224.993 40.2904C224.738 40.1402 224.415 40.0651 224.022 40.0651H221.979V42.0929Z" fill="white"/>
<path d="M234.663 43.6393H235.623C235.651 43.9055 235.744 44.1445 235.902 44.3561C236.067 44.5678 236.291 44.735 236.573 44.8579C236.855 44.9808 237.179 45.0423 237.543 45.0423C237.867 45.0423 238.135 45.0013 238.348 44.9194C238.569 44.8306 238.73 44.7077 238.834 44.5507C238.944 44.3937 238.999 44.2127 238.999 44.0079C238.999 43.7963 238.937 43.629 238.813 43.5061C238.696 43.3764 238.52 43.2706 238.287 43.1887C238.053 43.0999 237.76 43.0146 237.409 42.9326C237.106 42.8643 236.807 42.779 236.511 42.6766C236.215 42.5674 235.943 42.4342 235.696 42.2772C235.455 42.1202 235.259 41.929 235.107 41.7037C234.963 41.4784 234.891 41.2087 234.891 40.8947C234.891 40.5601 234.983 40.2563 235.169 39.9832C235.362 39.7033 235.641 39.4814 236.005 39.3176C236.37 39.1469 236.81 39.0615 237.327 39.0615C238.132 39.0615 238.741 39.2595 239.154 39.6555C239.566 40.0515 239.766 40.5806 239.752 41.2429H238.803C238.789 40.7854 238.641 40.4577 238.359 40.2597C238.084 40.0549 237.726 39.9525 237.285 39.9525C236.907 39.9525 236.58 40.0276 236.305 40.1778C236.036 40.328 235.902 40.5704 235.902 40.9049C235.902 41.0483 235.933 41.1746 235.995 41.2838C236.057 41.3862 236.16 41.4818 236.305 41.5706C236.449 41.6525 236.645 41.7344 236.893 41.8164C237.141 41.8983 237.447 41.987 237.812 42.0826C238.094 42.1441 238.362 42.2226 238.617 42.3182C238.878 42.4137 239.112 42.5332 239.319 42.6766C239.532 42.82 239.697 43.0043 239.814 43.2296C239.938 43.4481 240 43.7246 240 44.0591C240 44.4073 239.914 44.7248 239.742 45.0116C239.57 45.2915 239.302 45.5168 238.937 45.6875C238.572 45.8513 238.101 45.9332 237.523 45.9332C237.069 45.9332 236.673 45.8786 236.336 45.7694C235.998 45.6533 235.716 45.5031 235.489 45.3188C235.269 45.1276 235.094 44.9296 234.963 44.7248C234.839 44.5132 234.753 44.3117 234.705 44.1206C234.657 43.9226 234.643 43.7621 234.663 43.6393Z" fill="white"/>
</svg>
